<svg xmlns="http://www.w3.org/2000/svg" viewBox="0 0 800 600" width="800" height="600">
  <defs>
    <linearGradient id="bg" x1="0%" y1="0%" x2="100%" y2="100%">
      <stop offset="0%" style="stop-color:#1a365d"/>
      <stop offset="100%" style="stop-color:#2d3748"/>
    </linearGradient>
    <linearGradient id="accent" x1="0%" y1="0%" x2="100%" y2="0%">
      <stop offset="0%" style="stop-color:#f59e0b"/>
      <stop offset="100%" style="stop-color:#d97706"/>
    </linearGradient>
  </defs>

  <!-- Background -->
  <rect width="800" height="600" fill="url(#bg)"/>

  <!-- Subtle pattern overlay -->
  <g opacity="0.05">
    <rect x="50" y="50" width="700" height="500" rx="20" fill="none" stroke="white" stroke-width="2"/>
    <rect x="70" y="70" width="660" height="460" rx="15" fill="none" stroke="white" stroke-width="1"/>
  </g>

  <!-- House icon -->
  <g transform="translate(400, 180)" fill="none" stroke="#f59e0b" stroke-width="3" stroke-linecap="round" stroke-linejoin="round" opacity="0.9">
    <!-- Roof -->
    <path d="M-60,20 L0,-30 L60,20" stroke-width="4"/>
    <!-- House body -->
    <rect x="-45" y="20" width="90" height="60" rx="3"/>
    <!-- Door -->
    <rect x="-12" y="45" width="24" height="35" rx="2"/>
    <!-- Windows -->
    <rect x="-38" y="32" width="18" height="16" rx="2"/>
    <rect x="20" y="32" width="18" height="16" rx="2"/>
    <!-- Doorknob -->
    <circle cx="8" cy="63" r="2" fill="#f59e0b"/>
  </g>

  <!-- "COMING SOON" main text -->
  <text x="400" y="310" text-anchor="middle" font-family="Arial, Helvetica, sans-serif" font-weight="800" font-size="56" fill="white" letter-spacing="6">COMING SOON</text>

  <!-- Amber divider line -->
  <rect x="250" y="330" width="300" height="3" rx="1.5" fill="url(#accent)"/>

  <!-- "Another Property" subtitle -->
  <text x="400" y="375" text-anchor="middle" font-family="Arial, Helvetica, sans-serif" font-weight="600" font-size="24" fill="#e2e8f0" letter-spacing="2">Another Property</text>

  <!-- Brand name -->
  <text x="400" y="420" text-anchor="middle" font-family="Arial, Helvetica, sans-serif" font-weight="700" font-size="30" fill="#f59e0b" letter-spacing="1">Guyana Home Hub</text>

  <!-- Bottom tagline -->
  <text x="400" y="470" text-anchor="middle" font-family="Arial, Helvetica, sans-serif" font-weight="400" font-size="16" fill="#a0aec0" letter-spacing="1">Stay tuned for details</text>

  <!-- Bottom accent bar -->
  <rect x="0" y="580" width="800" height="20" fill="url(#accent)" opacity="0.8"/>
</svg>
